<mxfile host="app.diagrams.net" modified="2020-05-10T05:53:43.354Z" agent="5.0 (Macintosh; Intel Mac OS X 10_14_0) AppleWebKit/537.36 (KHTML, like Gecko) Chrome/81.0.4044.129 Safari/537.36" etag="EoboL2dQ8OFiQ8_hLdYJ" version="13.0.9" type="github">
  <diagram id="MtGTqtKccdnAhhnKta5w" name="Page-1">
    <mxGraphModel dx="786" dy="418" grid="0" gridSize="5" guides="1" tooltips="1" connect="1" arrows="1" fold="1" page="1" pageScale="1" pageWidth="850" pageHeight="1100" math="0" shadow="0">
      <root>
        <mxCell id="0" />
        <mxCell id="1" style="" parent="0" />
        <mxCell id="95fNkd9oNYl09B6rjdNe-12" value="Extends" style="endArrow=block;endSize=16;endFill=0;html=1;exitX=0.5;exitY=0;exitDx=0;exitDy=0;" parent="1" source="95fNkd9oNYl09B6rjdNe-9" target="95fNkd9oNYl09B6rjdNe-7" edge="1">
          <mxGeometry width="160" relative="1" as="geometry">
            <mxPoint x="564.5" y="310" as="sourcePoint" />
            <mxPoint x="565" y="220" as="targetPoint" />
          </mxGeometry>
        </mxCell>
        <mxCell id="95fNkd9oNYl09B6rjdNe-16" value="&lt;b&gt;ConcreteItem&lt;/b&gt;" style="html=1;" parent="1" vertex="1">
          <mxGeometry x="215" y="320" width="110" height="40" as="geometry" />
        </mxCell>
        <mxCell id="95fNkd9oNYl09B6rjdNe-18" value="&lt;b&gt;&lt;i&gt;Item&lt;/i&gt;&lt;/b&gt;" style="html=1;" parent="1" vertex="1">
          <mxGeometry x="215" y="210" width="110" height="40" as="geometry" />
        </mxCell>
        <mxCell id="95fNkd9oNYl09B6rjdNe-19" value="Extends" style="endArrow=block;endSize=16;endFill=0;html=1;entryX=0.5;entryY=1;entryDx=0;entryDy=0;" parent="1" target="95fNkd9oNYl09B6rjdNe-18" edge="1">
          <mxGeometry width="160" relative="1" as="geometry">
            <mxPoint x="270" y="320" as="sourcePoint" />
            <mxPoint x="269.5" y="270" as="targetPoint" />
          </mxGeometry>
        </mxCell>
        <mxCell id="95fNkd9oNYl09B6rjdNe-21" value="Client" style="html=1;fillColor=#f5f5f5;strokeColor=#666666;fontColor=#333333;" parent="1" vertex="1">
          <mxGeometry x="215" y="110" width="110" height="40" as="geometry" />
        </mxCell>
        <mxCell id="95fNkd9oNYl09B6rjdNe-25" value="acquaintance/ object reference" style="html=1;verticalAlign=bottom;endArrow=block;entryX=0;entryY=0.25;entryDx=0;entryDy=0;" parent="1" target="95fNkd9oNYl09B6rjdNe-5" edge="1">
          <mxGeometry width="80" relative="1" as="geometry">
            <mxPoint x="325" y="129.5" as="sourcePoint" />
            <mxPoint x="405" y="129.5" as="targetPoint" />
          </mxGeometry>
        </mxCell>
        <mxCell id="95fNkd9oNYl09B6rjdNe-26" value="" style="endArrow=block;dashed=1;endFill=1;endSize=12;html=1;labelBackgroundColor=black;labelBorderColor=black;shadow=0;comic=0;entryX=1;entryY=0.25;entryDx=0;entryDy=0;backgroundOutline=0;" parent="1" target="95fNkd9oNYl09B6rjdNe-16" edge="1">
          <mxGeometry width="160" relative="1" as="geometry">
            <mxPoint x="495" y="330" as="sourcePoint" />
            <mxPoint x="355" y="330" as="targetPoint" />
          </mxGeometry>
        </mxCell>
        <mxCell id="95fNkd9oNYl09B6rjdNe-31" value="2020 Hlaing Tin Htun" style="text;html=1;align=center;verticalAlign=middle;resizable=0;points=[];autosize=1;" parent="1" vertex="1">
          <mxGeometry x="233" y="400" width="130" height="20" as="geometry" />
        </mxCell>
        <mxCell id="95fNkd9oNYl09B6rjdNe-38" value="" style="shape=image;html=1;verticalAlign=top;verticalLabelPosition=bottom;labelBackgroundColor=#ffffff;imageAspect=0;aspect=fixed;image=https://cdn0.iconfinder.com/data/icons/simple-icons-4/128/copyright.png;strokeWidth=2;" parent="1" vertex="1">
          <mxGeometry x="215" y="402" width="18" height="18" as="geometry" />
        </mxCell>
        <mxCell id="95fNkd9oNYl09B6rjdNe-39" value="" style="endArrow=classic;html=1;shadow=0;labelBackgroundColor=#000000;fillColor=#a20025;strokeColor=#FF0000;" parent="1" edge="1">
          <mxGeometry width="50" height="50" relative="1" as="geometry">
            <mxPoint x="564.5" y="87" as="sourcePoint" />
            <mxPoint x="564.5" y="117" as="targetPoint" />
          </mxGeometry>
        </mxCell>
        <mxCell id="95fNkd9oNYl09B6rjdNe-40" value="Interface or abstract class name&lt;br&gt;ps. abstract class in this scenario" style="text;html=1;align=center;verticalAlign=middle;resizable=0;points=[];autosize=1;" parent="1" vertex="1">
          <mxGeometry x="470" y="58" width="190" height="30" as="geometry" />
        </mxCell>
        <mxCell id="95fNkd9oNYl09B6rjdNe-9" value="SampleConcrete" style="swimlane;fontStyle=1;childLayout=stackLayout;horizontal=1;startSize=26;fillColor=none;horizontalStack=0;resizeParent=1;resizeParentMax=0;resizeLast=0;collapsible=1;marginBottom=0;" parent="1" vertex="1">
          <mxGeometry x="495" y="320" width="140" height="52" as="geometry" />
        </mxCell>
        <mxCell id="95fNkd9oNYl09B6rjdNe-10" value="factoryMethod()" style="text;strokeColor=none;fillColor=none;align=left;verticalAlign=top;spacingLeft=4;spacingRight=4;overflow=hidden;rotatable=0;points=[[0,0.5],[1,0.5]];portConstraint=eastwest;" parent="95fNkd9oNYl09B6rjdNe-9" vertex="1">
          <mxGeometry y="26" width="140" height="26" as="geometry" />
        </mxCell>
        <mxCell id="95fNkd9oNYl09B6rjdNe-5" value="SampleInterface" style="swimlane;fontStyle=3;childLayout=stackLayout;horizontal=1;startSize=26;fillColor=none;horizontalStack=0;resizeParent=1;resizeParentMax=0;resizeLast=0;collapsible=1;marginBottom=0;" parent="1" vertex="1">
          <mxGeometry x="495" y="110" width="140" height="78" as="geometry" />
        </mxCell>
        <mxCell id="95fNkd9oNYl09B6rjdNe-46" value="" style="endArrow=classic;html=1;shadow=0;labelBackgroundColor=#000000;fillColor=#a20025;strokeColor=#FF0000;" parent="95fNkd9oNYl09B6rjdNe-5" edge="1">
          <mxGeometry width="50" height="50" relative="1" as="geometry">
            <mxPoint x="155" y="38.5" as="sourcePoint" />
            <mxPoint x="105" y="38.5" as="targetPoint" />
          </mxGeometry>
        </mxCell>
        <mxCell id="95fNkd9oNYl09B6rjdNe-6" value="factoryMethod()" style="text;strokeColor=none;fillColor=none;align=left;verticalAlign=top;spacingLeft=4;spacingRight=4;overflow=hidden;rotatable=0;points=[[0,0.5],[1,0.5]];portConstraint=eastwest;" parent="95fNkd9oNYl09B6rjdNe-5" vertex="1">
          <mxGeometry y="26" width="140" height="26" as="geometry" />
        </mxCell>
        <mxCell id="95fNkd9oNYl09B6rjdNe-7" value="concreteOperation()" style="text;strokeColor=none;fillColor=none;align=left;verticalAlign=top;spacingLeft=4;spacingRight=4;overflow=hidden;rotatable=0;points=[[0,0.5],[1,0.5]];portConstraint=eastwest;" parent="95fNkd9oNYl09B6rjdNe-5" vertex="1">
          <mxGeometry y="52" width="140" height="26" as="geometry" />
        </mxCell>
        <mxCell id="95fNkd9oNYl09B6rjdNe-47" value="abstract method" style="text;html=1;align=center;verticalAlign=middle;resizable=0;points=[];autosize=1;" parent="1" vertex="1">
          <mxGeometry x="652" y="139" width="100" height="20" as="geometry" />
        </mxCell>
        <mxCell id="95fNkd9oNYl09B6rjdNe-51" value="" style="endArrow=classic;html=1;shadow=0;labelBackgroundColor=#000000;fillColor=#a20025;strokeColor=#FF0000;" parent="1" edge="1">
          <mxGeometry width="50" height="50" relative="1" as="geometry">
            <mxPoint x="670" y="175.5" as="sourcePoint" />
            <mxPoint x="620" y="175.5" as="targetPoint" />
          </mxGeometry>
        </mxCell>
        <mxCell id="95fNkd9oNYl09B6rjdNe-52" value="concrete method" style="text;html=1;align=center;verticalAlign=middle;resizable=0;points=[];autosize=1;" parent="1" vertex="1">
          <mxGeometry x="670" y="165" width="100" height="20" as="geometry" />
        </mxCell>
        <mxCell id="95fNkd9oNYl09B6rjdNe-53" value="" style="endArrow=classic;html=1;shadow=0;labelBackgroundColor=#000000;fillColor=#a20025;strokeColor=#FF0000;" parent="1" edge="1">
          <mxGeometry width="50" height="50" relative="1" as="geometry">
            <mxPoint x="652" y="360" as="sourcePoint" />
            <mxPoint x="602" y="360" as="targetPoint" />
          </mxGeometry>
        </mxCell>
        <mxCell id="95fNkd9oNYl09B6rjdNe-54" value="Implement method" style="text;html=1;align=center;verticalAlign=middle;resizable=0;points=[];autosize=1;" parent="1" vertex="1">
          <mxGeometry x="652" y="352" width="110" height="20" as="geometry" />
        </mxCell>
        <mxCell id="95fNkd9oNYl09B6rjdNe-55" value="Extending SampleInterface&lt;br&gt;from SampleConcrete" style="text;html=1;align=center;verticalAlign=middle;resizable=0;points=[];autosize=1;" parent="1" vertex="1">
          <mxGeometry x="560" y="270" width="160" height="30" as="geometry" />
        </mxCell>
        <mxCell id="95fNkd9oNYl09B6rjdNe-56" value="instantiation" style="text;html=1;align=center;verticalAlign=middle;resizable=0;points=[];autosize=1;" parent="1" vertex="1">
          <mxGeometry x="366" y="312" width="80" height="20" as="geometry" />
        </mxCell>
      </root>
    </mxGraphModel>
  </diagram>
</mxfile>
